<svg width="24px" height="24px" viewBox="0 0 24 24" fill="currentColor" xmlns="http://www.w3.org/2000/svg">
<path fill-rule="evenodd" clip-rule="evenodd" d="M12 24C18.6274 24 24 18.6274 24 12C24 5.37258 18.6274 0 12 0C5.37258 0 0 5.37258 0 12C0 18.6274 5.37258 24 12 24ZM13.2974 10.0556L16.2186 5.71556C16.4983 5.26444 16.98 5 17.5083 5C18.3319 5 19 5.66889 19 6.49333V17.5067C19 18.3311 18.3319 19 17.5083 19H17.1976C16.7625 19 16.343 18.8133 16.0633 18.4711L7.36182 8.04889C7.29967 7.97111 7.15982 8.01778 7.15982 8.12667V15.9356C7.15982 16.0444 7.26859 16.0911 7.34628 16.0289L10.2209 13.54C10.5006 13.2911 10.889 13.6489 10.687 13.9444L7.76582 18.2844C7.48613 18.7356 7.00444 19 6.49168 19C5.66815 19 5 18.3311 5 17.5067V6.49333C5 5.66889 5.66815 5 6.47614 5H6.7869C7.23751 5 7.64151 5.18667 7.9212 5.52889L16.6226 15.9511C16.6848 16.0289 16.8246 15.9822 16.8246 15.8733V8.04889C16.8246 7.94 16.7159 7.89333 16.6382 7.95556L13.7636 10.46C13.4839 10.7089 13.0955 10.3511 13.2974 10.0556Z" fill="currentColor"/>
</svg>
